<?xml version="1.0" standalone="no"?>
<!DOCTYPE svg PUBLIC "-//W3C//DTD SVG 20010904//EN"
 "http://www.w3.org/TR/2001/REC-SVG-20010904/DTD/svg10.dtd">
<svg version="1.0" xmlns="http://www.w3.org/2000/svg"
 width="500.000000pt" height="500.000000pt" viewBox="0 0 500.000000 500.000000"
 preserveAspectRatio="xMidYMid meet">

<g transform="translate(0.000000,500.000000) scale(0.100000,-0.100000)"
fill="#000000" stroke="none">
<path d="M965 3465 c-140 -30 -261 -118 -315 -228 -55 -112 -58 -299 -7 -411
30 -64 113 -156 188 -207 32 -21 139 -79 238 -129 l181 -90 195 0 c107 0 195
3 195 6 0 19 -48 80 -98 125 -44 38 -114 79 -297 169 -284 142 -339 181 -386
276 -30 61 -33 75 -33 158 0 50 6 110 12 133 52 179 315 256 455 132 67 -59
107 -174 107 -313 l0 -48 48 7 c95 14 159 68 169 143 16 120 -108 238 -292
277 -86 18 -278 18 -360 0z"/>
<path d="M2696 3249 c-7 -190 -5 -232 8 -218 2 2 9 48 15 103 13 117 40 183
92 230 56 51 120 67 297 73 l152 6 0 -522 0 -521 140 0 140 0 0 520 0 520 113
0 c323 -1 415 -70 434 -327 3 -46 10 -83 14 -83 11 0 12 193 2 333 l-6 97
-697 0 -697 0 -7 -211z"/>
<path d="M1510 2931 c0 -4 20 -11 45 -14 105 -15 117 -32 220 -324 l68 -193
138 0 c77 0 139 2 139 3 0 2 -29 91 -65 198 -36 107 -65 208 -65 225 0 64 53
93 168 94 28 0 52 5 52 10 0 6 -123 10 -350 10 -192 0 -350 -4 -350 -9z"/>
<path d="M2570 2930 c0 -6 38 -10 93 -10 166 -1 213 -24 211 -108 0 -28 -24
-121 -58 -225 -52 -164 -61 -207 -37 -181 5 5 37 95 70 199 34 105 71 208 84
230 30 54 92 85 169 85 32 0 58 4 58 10 0 6 -105 10 -295 10 -190 0 -295 -4
-295 -10z"/>
<path d="M620 1891 c0 -4 23 -29 50 -55 94 -88 217 -126 413 -126 205 0 358
48 464 145 l48 44 -87 1 c-77 0 -87 -2 -93 -20 -3 -10 -29 -40 -56 -64 -86
-78 -235 -107 -356 -71 -54 16 -137 82 -162 129 -14 25 -17 26 -118 26 -57 0
-103 -4 -103 -9z"/>
<path d="M2024 1883 c3 -10 57 -164 120 -343 l114 -325 70 -3 71 -3 31 98 c56
177 183 568 187 581 3 6 -1 12 -8 12 -14 0 -24 -30 -125 -355 l-37 -120 -12
40 c-7 22 -41 129 -76 238 l-63 197 -139 0 c-127 0 -138 -1 -133 -17z"/>
<path d="M3255 1870 c-15 -67 -70 -107 -165 -117 -144 -15 -34 -23 310 -23
204 0 370 4 370 9 0 4 -27 11 -60 14 -90 8 -131 33 -155 95 l-20 52 -137 0
-136 0 -7 -30z"/>
</g>
</svg>
